<svg id="visual" viewBox="0 0 900 600" width="900" height="600" xmlns="http://www.w3.org/2000/svg" xmlns:xlink="http://www.w3.org/1999/xlink" version="1.1"><rect x="0" y="0" width="900" height="600" fill="#ffffff"></rect><defs><linearGradient id="grad1_0" x1="33.3%" y1="0%" x2="100%" y2="100%"><stop offset="20%" stop-color="#000000" stop-opacity="1"></stop><stop offset="80%" stop-color="#000000" stop-opacity="1"></stop></linearGradient></defs><defs><linearGradient id="grad1_1" x1="33.3%" y1="0%" x2="100%" y2="100%"><stop offset="20%" stop-color="#000000" stop-opacity="1"></stop><stop offset="80%" stop-color="#4e4e4e" stop-opacity="1"></stop></linearGradient></defs><defs><linearGradient id="grad1_2" x1="33.3%" y1="0%" x2="100%" y2="100%"><stop offset="20%" stop-color="#a2a2a2" stop-opacity="1"></stop><stop offset="80%" stop-color="#4e4e4e" stop-opacity="1"></stop></linearGradient></defs><defs><linearGradient id="grad1_3" x1="33.3%" y1="0%" x2="100%" y2="100%"><stop offset="20%" stop-color="#a2a2a2" stop-opacity="1"></stop><stop offset="80%" stop-color="#ffffff" stop-opacity="1"></stop></linearGradient></defs><defs><linearGradient id="grad2_0" x1="0%" y1="0%" x2="66.7%" y2="100%"><stop offset="20%" stop-color="#000000" stop-opacity="1"></stop><stop offset="80%" stop-color="#000000" stop-opacity="1"></stop></linearGradient></defs><defs><linearGradient id="grad2_1" x1="0%" y1="0%" x2="66.7%" y2="100%"><stop offset="20%" stop-color="#4e4e4e" stop-opacity="1"></stop><stop offset="80%" stop-color="#000000" stop-opacity="1"></stop></linearGradient></defs><defs><linearGradient id="grad2_2" x1="0%" y1="0%" x2="66.7%" y2="100%"><stop offset="20%" stop-color="#4e4e4e" stop-opacity="1"></stop><stop offset="80%" stop-color="#a2a2a2" stop-opacity="1"></stop></linearGradient></defs><defs><linearGradient id="grad2_3" x1="0%" y1="0%" x2="66.7%" y2="100%"><stop offset="20%" stop-color="#ffffff" stop-opacity="1"></stop><stop offset="80%" stop-color="#a2a2a2" stop-opacity="1"></stop></linearGradient></defs><g transform="translate(900, 0)"><path d="M0 351.5C-46.4 347.3 -92.7 343.1 -134.5 324.8C-176.3 306.5 -213.6 274.2 -237.6 237.6C-261.6 201 -272.4 160.1 -289.2 119.8C-306 79.5 -328.8 39.7 -351.5 0L0 0Z" fill="#d0d0d0"></path><path d="M0 263.7C-34.8 260.5 -69.5 257.3 -100.9 243.6C-132.2 229.9 -160.2 205.6 -178.2 178.2C-196.2 150.7 -204.3 120.1 -216.9 89.8C-229.5 59.6 -246.6 29.8 -263.7 0L0 0Z" fill="#777777"></path><path d="M0 175.8C-23.2 173.7 -46.4 171.5 -67.3 162.4C-88.2 153.3 -106.8 137.1 -118.8 118.8C-130.8 100.5 -136.2 80 -144.6 59.9C-153 39.7 -164.4 19.9 -175.8 0L0 0Z" fill="#292929"></path><path d="M0 87.9C-11.6 86.8 -23.2 85.8 -33.6 81.2C-44.1 76.6 -53.4 68.5 -59.4 59.4C-65.4 50.2 -68.1 40 -72.3 29.9C-76.5 19.9 -82.2 9.9 -87.9 0L0 0Z" fill="#000000"></path></g><g transform="translate(0, 600)"><path d="M0 -351.5C44.3 -343.2 88.6 -335 132.4 -319.7C176.2 -304.4 219.6 -282.1 248.6 -248.6C277.5 -215.1 292 -170.3 306.7 -127.1C321.5 -83.8 336.5 -41.9 351.5 0L0 0Z" fill="#d0d0d0"></path><path d="M0 -263.7C33.2 -257.4 66.4 -251.2 99.3 -239.7C132.2 -228.3 164.7 -211.6 186.4 -186.4C208.1 -161.3 219 -127.8 230 -95.3C241.1 -62.8 252.4 -31.4 263.7 0L0 0Z" fill="#777777"></path><path d="M0 -175.8C22.1 -171.6 44.3 -167.5 66.2 -159.8C88.1 -152.2 109.8 -141 124.3 -124.3C138.8 -107.5 146 -85.2 153.4 -63.5C160.7 -41.9 168.3 -20.9 175.8 0L0 0Z" fill="#292929"></path><path d="M0 -87.9C11.1 -85.8 22.1 -83.7 33.1 -79.9C44.1 -76.1 54.9 -70.5 62.1 -62.1C69.4 -53.8 73 -42.6 76.7 -31.8C80.4 -20.9 84.1 -10.5 87.9 0L0 0Z" fill="#000000"></path></g></svg>